<mxfile host="app.diagrams.net" modified="2021-08-15T08:05:49.149Z" agent="5.0 (Windows NT 10.0; Win64; x64) AppleWebKit/537.36 (KHTML, like Gecko) Chrome/92.0.4515.131 Safari/537.36 Edg/92.0.902.73" etag="MnaFqQb-lUW6mc5j8vJ1" version="14.9.6" type="github">
  <diagram id="V7ID9nHgr5J-yR-d5yib" name="第 1 页">
    <mxGraphModel dx="1422" dy="724" grid="1" gridSize="10" guides="1" tooltips="1" connect="1" arrows="1" fold="1" page="1" pageScale="1" pageWidth="827" pageHeight="1169" math="0" shadow="0">
      <root>
        <mxCell id="0" />
        <mxCell id="1" parent="0" />
        <mxCell id="6c5y5zxhMUdatT_7hTFU-1" value="" style="rounded=0;whiteSpace=wrap;html=1;" vertex="1" parent="1">
          <mxGeometry x="40" y="240" width="200" height="500" as="geometry" />
        </mxCell>
        <mxCell id="6c5y5zxhMUdatT_7hTFU-2" value="Prediction Component&lt;br&gt;(&lt;font color=&quot;#ff3333&quot;&gt;thread 1&lt;/font&gt;)" style="shape=process;whiteSpace=wrap;html=1;backgroundOutline=1;" vertex="1" parent="1">
          <mxGeometry x="80" y="250" width="120" height="60" as="geometry" />
        </mxCell>
        <mxCell id="6c5y5zxhMUdatT_7hTFU-3" style="edgeStyle=orthogonalEdgeStyle;rounded=0;orthogonalLoop=1;jettySize=auto;html=1;exitX=0.5;exitY=1;exitDx=0;exitDy=0;entryX=0.485;entryY=-0.046;entryDx=0;entryDy=0;entryPerimeter=0;" edge="1" parent="1" source="6c5y5zxhMUdatT_7hTFU-4" target="6c5y5zxhMUdatT_7hTFU-6">
          <mxGeometry relative="1" as="geometry" />
        </mxCell>
        <mxCell id="6c5y5zxhMUdatT_7hTFU-4" value="CallProcess" style="rounded=1;whiteSpace=wrap;html=1;" vertex="1" parent="1">
          <mxGeometry x="80" y="340" width="120" height="60" as="geometry" />
        </mxCell>
        <mxCell id="6c5y5zxhMUdatT_7hTFU-5" style="edgeStyle=orthogonalEdgeStyle;rounded=0;orthogonalLoop=1;jettySize=auto;html=1;exitX=0.5;exitY=1;exitDx=0;exitDy=0;entryX=0.5;entryY=0;entryDx=0;entryDy=0;" edge="1" parent="1" source="6c5y5zxhMUdatT_7hTFU-6" target="6c5y5zxhMUdatT_7hTFU-8">
          <mxGeometry relative="1" as="geometry" />
        </mxCell>
        <mxCell id="6c5y5zxhMUdatT_7hTFU-6" value="Process" style="rounded=1;whiteSpace=wrap;html=1;" vertex="1" parent="1">
          <mxGeometry x="80" y="440" width="120" height="60" as="geometry" />
        </mxCell>
        <mxCell id="6c5y5zxhMUdatT_7hTFU-7" style="edgeStyle=orthogonalEdgeStyle;rounded=0;orthogonalLoop=1;jettySize=auto;html=1;exitX=0.5;exitY=1;exitDx=0;exitDy=0;entryX=0.5;entryY=0;entryDx=0;entryDy=0;" edge="1" parent="1" source="6c5y5zxhMUdatT_7hTFU-8" target="6c5y5zxhMUdatT_7hTFU-9">
          <mxGeometry relative="1" as="geometry" />
        </mxCell>
        <mxCell id="6c5y5zxhMUdatT_7hTFU-8" value="cyber.Write&lt;br&gt;(prediction_ptr)&lt;br&gt;(&lt;font color=&quot;#ff3333&quot;&gt;is shared_ptr&lt;/font&gt;)" style="rounded=1;whiteSpace=wrap;html=1;" vertex="1" parent="1">
          <mxGeometry x="80" y="540" width="120" height="60" as="geometry" />
        </mxCell>
        <mxCell id="6c5y5zxhMUdatT_7hTFU-9" value="prediction_ptr-&amp;gt;ByteSizeLong()" style="rounded=1;whiteSpace=wrap;html=1;" vertex="1" parent="1">
          <mxGeometry x="80" y="640" width="120" height="60" as="geometry" />
        </mxCell>
        <mxCell id="6c5y5zxhMUdatT_7hTFU-10" value="" style="rounded=0;whiteSpace=wrap;html=1;" vertex="1" parent="1">
          <mxGeometry x="320" y="240" width="200" height="500" as="geometry" />
        </mxCell>
        <mxCell id="6c5y5zxhMUdatT_7hTFU-11" value="CallBack&lt;br&gt;(&lt;font color=&quot;#ff3333&quot;&gt;thread 2&lt;/font&gt;)" style="shape=process;whiteSpace=wrap;html=1;backgroundOutline=1;" vertex="1" parent="1">
          <mxGeometry x="360" y="250" width="120" height="60" as="geometry" />
        </mxCell>
        <mxCell id="6c5y5zxhMUdatT_7hTFU-12" style="edgeStyle=orthogonalEdgeStyle;rounded=0;orthogonalLoop=1;jettySize=auto;html=1;exitX=0.5;exitY=1;exitDx=0;exitDy=0;entryX=0.485;entryY=-0.046;entryDx=0;entryDy=0;entryPerimeter=0;" edge="1" parent="1" source="6c5y5zxhMUdatT_7hTFU-13" target="6c5y5zxhMUdatT_7hTFU-15">
          <mxGeometry relative="1" as="geometry" />
        </mxCell>
        <mxCell id="6c5y5zxhMUdatT_7hTFU-13" value="CallBackFunc" style="rounded=1;whiteSpace=wrap;html=1;" vertex="1" parent="1">
          <mxGeometry x="360" y="340" width="120" height="60" as="geometry" />
        </mxCell>
        <mxCell id="6c5y5zxhMUdatT_7hTFU-44" style="edgeStyle=orthogonalEdgeStyle;rounded=0;orthogonalLoop=1;jettySize=auto;html=1;exitX=0.5;exitY=1;exitDx=0;exitDy=0;" edge="1" parent="1" source="6c5y5zxhMUdatT_7hTFU-15" target="6c5y5zxhMUdatT_7hTFU-43">
          <mxGeometry relative="1" as="geometry" />
        </mxCell>
        <mxCell id="6c5y5zxhMUdatT_7hTFU-15" value="cost_time_.&lt;font color=&quot;#ff9933&quot;&gt;Clear()&lt;/font&gt;" style="rounded=1;whiteSpace=wrap;html=1;" vertex="1" parent="1">
          <mxGeometry x="360" y="440" width="120" height="60" as="geometry" />
        </mxCell>
        <mxCell id="6c5y5zxhMUdatT_7hTFU-16" value="Enqueue&lt;br&gt;(prediction_ptr)&lt;br&gt;(&lt;font color=&quot;#007fff&quot;&gt;thread safe&lt;/font&gt;)" style="rounded=1;whiteSpace=wrap;html=1;" vertex="1" parent="1">
          <mxGeometry x="360" y="640" width="120" height="60" as="geometry" />
        </mxCell>
        <mxCell id="6c5y5zxhMUdatT_7hTFU-17" value="" style="rounded=0;whiteSpace=wrap;html=1;" vertex="1" parent="1">
          <mxGeometry x="600" y="240" width="200" height="500" as="geometry" />
        </mxCell>
        <mxCell id="6c5y5zxhMUdatT_7hTFU-18" value="Planning Component&lt;br&gt;(&lt;font color=&quot;#ff3333&quot;&gt;thread 3&lt;/font&gt;)" style="shape=process;whiteSpace=wrap;html=1;backgroundOutline=1;" vertex="1" parent="1">
          <mxGeometry x="640" y="250" width="120" height="60" as="geometry" />
        </mxCell>
        <mxCell id="6c5y5zxhMUdatT_7hTFU-19" style="edgeStyle=orthogonalEdgeStyle;rounded=0;orthogonalLoop=1;jettySize=auto;html=1;exitX=0.5;exitY=1;exitDx=0;exitDy=0;entryX=0.485;entryY=-0.046;entryDx=0;entryDy=0;entryPerimeter=0;" edge="1" parent="1" source="6c5y5zxhMUdatT_7hTFU-20" target="6c5y5zxhMUdatT_7hTFU-22">
          <mxGeometry relative="1" as="geometry" />
        </mxCell>
        <mxCell id="6c5y5zxhMUdatT_7hTFU-20" value="&lt;font color=&quot;#007fff&quot;&gt;Dequeue&lt;/font&gt; and get&lt;br&gt;prediction_ptr" style="rounded=1;whiteSpace=wrap;html=1;" vertex="1" parent="1">
          <mxGeometry x="640" y="340" width="120" height="60" as="geometry" />
        </mxCell>
        <mxCell id="6c5y5zxhMUdatT_7hTFU-21" style="edgeStyle=orthogonalEdgeStyle;rounded=0;orthogonalLoop=1;jettySize=auto;html=1;exitX=0.5;exitY=1;exitDx=0;exitDy=0;entryX=0.5;entryY=0;entryDx=0;entryDy=0;" edge="1" parent="1" source="6c5y5zxhMUdatT_7hTFU-22" target="6c5y5zxhMUdatT_7hTFU-24">
          <mxGeometry relative="1" as="geometry" />
        </mxCell>
        <mxCell id="6c5y5zxhMUdatT_7hTFU-22" value="CallProcess" style="rounded=1;whiteSpace=wrap;html=1;" vertex="1" parent="1">
          <mxGeometry x="640" y="440" width="120" height="60" as="geometry" />
        </mxCell>
        <mxCell id="6c5y5zxhMUdatT_7hTFU-23" style="edgeStyle=orthogonalEdgeStyle;rounded=0;orthogonalLoop=1;jettySize=auto;html=1;exitX=0.5;exitY=1;exitDx=0;exitDy=0;entryX=0.5;entryY=0;entryDx=0;entryDy=0;" edge="1" parent="1" source="6c5y5zxhMUdatT_7hTFU-24" target="6c5y5zxhMUdatT_7hTFU-25">
          <mxGeometry relative="1" as="geometry" />
        </mxCell>
        <mxCell id="6c5y5zxhMUdatT_7hTFU-24" value="Process" style="rounded=1;whiteSpace=wrap;html=1;" vertex="1" parent="1">
          <mxGeometry x="640" y="540" width="120" height="60" as="geometry" />
        </mxCell>
        <mxCell id="6c5y5zxhMUdatT_7hTFU-25" value="&lt;font color=&quot;#ff9933&quot;&gt;planning_ptr copy some field from cost_time_&lt;/font&gt;" style="rounded=1;whiteSpace=wrap;html=1;" vertex="1" parent="1">
          <mxGeometry x="640" y="640" width="120" height="60" as="geometry" />
        </mxCell>
        <mxCell id="6c5y5zxhMUdatT_7hTFU-26" value="" style="whiteSpace=wrap;html=1;aspect=fixed;" vertex="1" parent="1">
          <mxGeometry x="230" y="790" width="20" height="20" as="geometry" />
        </mxCell>
        <mxCell id="6c5y5zxhMUdatT_7hTFU-27" value="" style="whiteSpace=wrap;html=1;aspect=fixed;" vertex="1" parent="1">
          <mxGeometry x="250" y="790" width="20" height="20" as="geometry" />
        </mxCell>
        <mxCell id="6c5y5zxhMUdatT_7hTFU-28" value="" style="whiteSpace=wrap;html=1;aspect=fixed;" vertex="1" parent="1">
          <mxGeometry x="270" y="790" width="20" height="20" as="geometry" />
        </mxCell>
        <mxCell id="6c5y5zxhMUdatT_7hTFU-29" value="" style="whiteSpace=wrap;html=1;aspect=fixed;" vertex="1" parent="1">
          <mxGeometry x="290" y="790" width="20" height="20" as="geometry" />
        </mxCell>
        <mxCell id="6c5y5zxhMUdatT_7hTFU-30" value="" style="whiteSpace=wrap;html=1;aspect=fixed;" vertex="1" parent="1">
          <mxGeometry x="310" y="790" width="20" height="20" as="geometry" />
        </mxCell>
        <mxCell id="6c5y5zxhMUdatT_7hTFU-31" value="" style="curved=1;endArrow=classic;html=1;entryX=0;entryY=0.5;entryDx=0;entryDy=0;exitX=1;exitY=0.5;exitDx=0;exitDy=0;dashed=1;" edge="1" parent="1" source="6c5y5zxhMUdatT_7hTFU-8" target="6c5y5zxhMUdatT_7hTFU-26">
          <mxGeometry width="50" height="50" relative="1" as="geometry">
            <mxPoint x="120" y="780" as="sourcePoint" />
            <mxPoint x="160" y="780" as="targetPoint" />
            <Array as="points">
              <mxPoint x="230" y="670" />
              <mxPoint x="220" y="760" />
              <mxPoint x="170" y="800" />
            </Array>
          </mxGeometry>
        </mxCell>
        <mxCell id="6c5y5zxhMUdatT_7hTFU-32" value="" style="curved=1;endArrow=classic;html=1;dashed=1;exitX=1;exitY=0.5;exitDx=0;exitDy=0;" edge="1" parent="1" source="6c5y5zxhMUdatT_7hTFU-30">
          <mxGeometry width="50" height="50" relative="1" as="geometry">
            <mxPoint x="290" y="500" as="sourcePoint" />
            <mxPoint x="360" y="370" as="targetPoint" />
            <Array as="points">
              <mxPoint x="350" y="790" />
              <mxPoint x="340" y="530" />
              <mxPoint x="360" y="420" />
              <mxPoint x="310" y="370" />
            </Array>
          </mxGeometry>
        </mxCell>
        <mxCell id="6c5y5zxhMUdatT_7hTFU-33" value="Cyber inner queue" style="text;html=1;strokeColor=none;fillColor=none;align=center;verticalAlign=middle;whiteSpace=wrap;rounded=0;" vertex="1" parent="1">
          <mxGeometry x="220" y="810" width="120" height="20" as="geometry" />
        </mxCell>
        <mxCell id="6c5y5zxhMUdatT_7hTFU-34" value="" style="whiteSpace=wrap;html=1;aspect=fixed;" vertex="1" parent="1">
          <mxGeometry x="510" y="790" width="20" height="20" as="geometry" />
        </mxCell>
        <mxCell id="6c5y5zxhMUdatT_7hTFU-35" value="" style="whiteSpace=wrap;html=1;aspect=fixed;" vertex="1" parent="1">
          <mxGeometry x="530" y="790" width="20" height="20" as="geometry" />
        </mxCell>
        <mxCell id="6c5y5zxhMUdatT_7hTFU-36" value="" style="whiteSpace=wrap;html=1;aspect=fixed;" vertex="1" parent="1">
          <mxGeometry x="550" y="790" width="20" height="20" as="geometry" />
        </mxCell>
        <mxCell id="6c5y5zxhMUdatT_7hTFU-37" value="" style="whiteSpace=wrap;html=1;aspect=fixed;" vertex="1" parent="1">
          <mxGeometry x="570" y="790" width="20" height="20" as="geometry" />
        </mxCell>
        <mxCell id="6c5y5zxhMUdatT_7hTFU-38" value="" style="whiteSpace=wrap;html=1;aspect=fixed;" vertex="1" parent="1">
          <mxGeometry x="590" y="790" width="20" height="20" as="geometry" />
        </mxCell>
        <mxCell id="6c5y5zxhMUdatT_7hTFU-39" value="Component inner queue" style="text;html=1;strokeColor=none;fillColor=none;align=center;verticalAlign=middle;whiteSpace=wrap;rounded=0;" vertex="1" parent="1">
          <mxGeometry x="490" y="810" width="140" height="20" as="geometry" />
        </mxCell>
        <mxCell id="6c5y5zxhMUdatT_7hTFU-40" value="" style="curved=1;endArrow=classic;html=1;dashed=1;entryX=0;entryY=0.5;entryDx=0;entryDy=0;exitX=0.5;exitY=1;exitDx=0;exitDy=0;" edge="1" parent="1" source="6c5y5zxhMUdatT_7hTFU-16" target="6c5y5zxhMUdatT_7hTFU-34">
          <mxGeometry width="50" height="50" relative="1" as="geometry">
            <mxPoint x="420" y="700" as="sourcePoint" />
            <mxPoint x="470" y="650" as="targetPoint" />
            <Array as="points">
              <mxPoint x="410" y="740" />
            </Array>
          </mxGeometry>
        </mxCell>
        <mxCell id="6c5y5zxhMUdatT_7hTFU-41" value="" style="curved=1;endArrow=classic;html=1;dashed=1;exitX=1;exitY=0.25;exitDx=0;exitDy=0;" edge="1" parent="1" source="6c5y5zxhMUdatT_7hTFU-38">
          <mxGeometry width="50" height="50" relative="1" as="geometry">
            <mxPoint x="590" y="420" as="sourcePoint" />
            <mxPoint x="640" y="370" as="targetPoint" />
            <Array as="points">
              <mxPoint x="620" y="760" />
              <mxPoint x="620" y="520" />
              <mxPoint x="640" y="420" />
              <mxPoint x="590" y="370" />
            </Array>
          </mxGeometry>
        </mxCell>
        <mxCell id="6c5y5zxhMUdatT_7hTFU-42" value="&lt;font color=&quot;#ff3333&quot;&gt;cost_time_&lt;br&gt;( member&lt;br&gt;&lt;/font&gt;&lt;div style=&quot;text-align: left&quot;&gt;&lt;font color=&quot;#ff3333&quot;&gt;&lt;font face=&quot;arial, pingfang sc, hiragino sans gb, stheiti, microsoft yahei, wenquanyi micro hei, sans-serif&quot;&gt;&lt;span style=&quot;font-size: 14px ; background-color: rgb(249 , 249 , 249)&quot;&gt;variable&lt;/span&gt;&lt;/font&gt;&lt;span&gt;)&lt;/span&gt;&lt;/font&gt;&lt;/div&gt;" style="whiteSpace=wrap;html=1;aspect=fixed;" vertex="1" parent="1">
          <mxGeometry x="510" y="110" width="100" height="100" as="geometry" />
        </mxCell>
        <mxCell id="6c5y5zxhMUdatT_7hTFU-45" style="edgeStyle=orthogonalEdgeStyle;rounded=0;orthogonalLoop=1;jettySize=auto;html=1;exitX=0.5;exitY=1;exitDx=0;exitDy=0;entryX=0.5;entryY=0;entryDx=0;entryDy=0;" edge="1" parent="1" source="6c5y5zxhMUdatT_7hTFU-43" target="6c5y5zxhMUdatT_7hTFU-16">
          <mxGeometry relative="1" as="geometry" />
        </mxCell>
        <mxCell id="6c5y5zxhMUdatT_7hTFU-43" value="cost_time_.&lt;font color=&quot;#ff9933&quot;&gt;mutable()&lt;/font&gt;" style="rounded=1;whiteSpace=wrap;html=1;" vertex="1" parent="1">
          <mxGeometry x="360" y="540" width="120" height="60" as="geometry" />
        </mxCell>
        <mxCell id="6c5y5zxhMUdatT_7hTFU-47" value="&lt;h1&gt;结论&lt;/h1&gt;&lt;div&gt;1.&lt;font color=&quot;#ff3333&quot;&gt;thread 2&lt;/font&gt; CallBackFunc中对类成员变量&lt;font color=&quot;#ff3333&quot;&gt;cost_time_&lt;/font&gt;进行了&lt;font color=&quot;#ff9933&quot;&gt;Clear()&lt;/font&gt;与&lt;font color=&quot;#ff9933&quot;&gt;mutable()&lt;/font&gt;修改，而&lt;font color=&quot;#ff3333&quot;&gt;thread 3&lt;/font&gt; planning_ptr会从cost_time_中&lt;font color=&quot;#ff9933&quot;&gt;获取部分域数据&lt;/font&gt;;&lt;/div&gt;&lt;div&gt;2.如果prediction与planning帧率正常，即按照&quot;CallBackFunc --&amp;gt; cost_time_&quot; --&amp;gt; &quot;Enqueue&quot; --&amp;gt; &quot;Dequeue&quot; --&amp;gt; &quot;copy from cost_time_&quot;顺序，则程序运行正常;&lt;/div&gt;&lt;div&gt;3.若prediction 或 planning帧率异常，则在thread 3 &quot;&lt;font color=&quot;#ff9933&quot;&gt;copy from cost_time_&lt;/font&gt;&quot;过程中，thread 2 回调了&quot;CallBackFunc&quot;并&lt;font color=&quot;#ff9933&quot;&gt;修改了&quot;cost_time_&quot;&lt;/font&gt;, 则导致&lt;font color=&quot;#ff9933&quot;&gt;多线程数据竞争，产生未定义行为&lt;/font&gt;；&lt;/div&gt;" style="text;html=1;strokeColor=none;fillColor=none;spacing=5;spacingTop=-20;whiteSpace=wrap;overflow=hidden;rounded=0;" vertex="1" parent="1">
          <mxGeometry x="40" y="880" width="700" height="170" as="geometry" />
        </mxCell>
      </root>
    </mxGraphModel>
  </diagram>
</mxfile>
